<svg xmlns="http://www.w3.org/2000/svg" viewBox="0 0 33 28"><defs><style>.cls-1{fill:#fff;}</style></defs><title> 資產 32</title><g id="圖層_2" data-name="圖層 2"><g id="_2-1_車型選擇" data-name="2-1_車型選擇"><path class="cls-1" d="M13.91,4.88h.69c2.3,0,4.61,0,6.91.09a11.73,11.73,0,0,1,8,3.71,12.32,12.32,0,0,1,3.47,9c0,2.92,0,5.85,0,8.78a2,2,0,0,1-.31,1,1.14,1.14,0,0,1-1.3.5,1.25,1.25,0,0,1-1.05-1.07A21,21,0,0,0,30,24.78a8.1,8.1,0,0,0-7-6.25A6.46,6.46,0,0,0,22,18.48H14.4c-.13,0-.26,0-.47,0,0,.69,0,1.37,0,2A2.6,2.6,0,0,1,13,22.68a2.7,2.7,0,0,1-3.39.13,4.52,4.52,0,0,1-.58-.5L1.45,14.79a4.07,4.07,0,0,1,0-6.22C4,6,6.57,3.48,9.14,1A2.72,2.72,0,0,1,13.06.73a2.36,2.36,0,0,1,.85,1.75C13.92,3.26,13.91,4,13.91,4.88Z"/></g></g></svg>