<svg xmlns="http://www.w3.org/2000/svg" viewBox="0 0 27.04 27"><defs><style>.cls-1{fill:#fff;}</style></defs><title> 資產 8</title><g id="圖層_2" data-name="圖層 2"><g id="_1-0_登入頁" data-name="1-0_登入頁"><path class="cls-1" d="M0,27V8.72A4,4,0,0,1,4.21,4.5H9.62a4.92,4.92,0,0,0,.52,0c0-.52,0-1,.07-1.5a3.32,3.32,0,0,1,6.61,0,6.15,6.15,0,0,1,0,1c0,.35.11.46.46.46,1.85,0,3.69,0,5.54,0a3.88,3.88,0,0,1,3.76,2.26,4.16,4.16,0,0,1,.4,1.7c0,6.08,0,12.15,0,18.23,0,.09,0,.19,0,.31Zm13.52-3.31h9.64c.3,0,.55,0,.54-.42,0-4.89,0-9.78,0-14.67,0-.58-.19-.76-.78-.76H17.3c-.34,0-.45.13-.43.45,0,.48,0,1,0,1.44,0,.28-.07.4-.37.4h-6c-.31,0-.38-.13-.37-.41,0-.45,0-.9,0-1.35s-.13-.54-.53-.53H4.22c-.74,0-.88.15-.88.9q0,7.18,0,14.38c0,.58,0,.58.58.58Z"/><path class="cls-1" d="M5.66,21.33V17.61c0-1.59,0-3.18,0-4.78,0-.33.1-.44.43-.43h4.74c.31,0,.41.1.41.42q0,4.08,0,8.16c0,.23,0,.4-.33.39-1.68,0-3.36,0-5,0A1.23,1.23,0,0,1,5.66,21.33Z"/><path class="cls-1" d="M17.43,15.75c-1.15,0-2.29,0-3.43,0-.37,0-.49-.12-.47-.49,0-.83,0-1.66,0-2.49,0-.27.08-.38.36-.38H21c.25,0,.34.1.34.35,0,.88,0,1.75,0,2.62,0,.32-.13.39-.4.39Z"/><path class="cls-1" d="M13.54,21.37c0-1.08,0-2.11,0-3.13,0-.07.15-.2.24-.2,1.69,0,3.38,0,5.07,0,.1,0,.28.2.28.31q0,1.35,0,2.7a.45.45,0,0,1-.3.3Z"/></g></g></svg>