<svg xmlns="http://www.w3.org/2000/svg" viewBox="0 0 38.43 38.87"><defs><style>.cls-1{fill:#fff;}</style></defs><title> 資產 9</title><g id="圖層_2" data-name="圖層 2"><g id="_2-0_預備頁" data-name="2-0_預備頁"><path class="cls-1" d="M19.19,25.94c.82.32,1.53.55,2.2.86a4.28,4.28,0,0,1,2.17,2.93,33.83,33.83,0,0,1,.7,3.61.8.8,0,0,1-.32.58,20.91,20.91,0,0,1-7.11,3.66,32.54,32.54,0,0,1-9.25,1.29,12.08,12.08,0,0,1-4.42-.62,1.87,1.87,0,0,1-.69-.35,2.23,2.23,0,0,0-2.09-.64l-.36,0c0-.93,0-1.86,0-2.78,0-.11.27-.33.38-.31,1,.18,1.6-.37,2.18-1.12a14.45,14.45,0,0,1,5.28-4.14,15.74,15.74,0,0,0,7.92-8.54.86.86,0,0,0-.28-1.14A7.45,7.45,0,0,0,9.6,17.35a23.28,23.28,0,0,0-2.74.43c-.43.09-.64,0-.74-.44a6.25,6.25,0,0,0-.4-1.27c-.23-.49,0-.71.37-1a13.24,13.24,0,0,1,9.7-1.8,1.41,1.41,0,0,1,.81.61A11.27,11.27,0,0,0,21,18.51a10.75,10.75,0,0,0,5.49,1.14,9,9,0,0,0,5-1.47.8.8,0,0,1,.66,0,12.66,12.66,0,0,1,6.33,6.48c.06.14-.1.39-.17.58,0,0-.07,0-.1.07a2,2,0,0,1-2.84.18,17.58,17.58,0,0,0-3.41-1.36,3.23,3.23,0,0,0-.7-.09c0,.23,0,.38,0,.53a15.35,15.35,0,0,1-1.17,9.56c-.16.37-.33.51-.77.38-2-.58-1.59,0-1.84-2.11a12.88,12.88,0,0,0-2.2-6.45A7.49,7.49,0,0,0,21,23.15c-.16,0-.47,0-.52.12C20.05,24.15,19.62,25.06,19.19,25.94Z"/><path class="cls-1" d="M26.17,16.45a8.86,8.86,0,0,1-6.59-3.2A22.81,22.81,0,0,1,18,11a3,3,0,0,1-.09-2.57,17.73,17.73,0,0,1,2.45-6A5.13,5.13,0,0,1,27.28.71a6.24,6.24,0,0,1,2.27,2.85,20.83,20.83,0,0,1,1.56,6c.17,1.35.31,2.69.42,4a1,1,0,0,1-.25.73A8.42,8.42,0,0,1,26.17,16.45Z"/></g></g></svg>