<svg xmlns="http://www.w3.org/2000/svg" viewBox="0 0 62.26 62.24"><defs><style>.cls-1{fill:#fff;}</style></defs><title> 資產 5</title><g id="圖層_2" data-name="圖層 2"><g id="_1-0_登入頁" data-name="1-0_登入頁"><path class="cls-1" d="M38.44,62.23V40.13h3.45c1.65,0,3.31,0,5,0a1.14,1.14,0,0,0,.87-.6c.58-3.33,1.1-6.68,1.66-10.18H38.48V21.75h1.18c2.93,0,5.86,0,8.79,0,.92,0,1.21-.3,1.19-1.2,0-2.85,0-5.7,0-8.56,0-.64-.05-1.14-.9-1.12-4,.08-8,0-12,.23a9.07,9.07,0,0,0-4.93,2.17c-3.39,2.48-4.23,5.86-4.25,9.7,0,2,0,4.08,0,6.28H20.21V40.12h7.26v22c-.26,0-.55.08-.84.08-5.74,0-11.49,0-17.23,0a9.35,9.35,0,0,1-6.13-2A9.34,9.34,0,0,1,0,52.55Q0,38.38,0,24.21c0-4.89,0-9.79,0-14.69a9.11,9.11,0,0,1,3.2-7.47,8.84,8.84,0,0,1,5-2c.5,0,1-.06,1.51-.06h42.9c3,0,5.74.85,7.68,3.27a9.33,9.33,0,0,1,2,6c0,3.12,0,6.24,0,9.37,0,11.21,0,22.43,0,33.65a10.56,10.56,0,0,1-2,6.7,8.25,8.25,0,0,1-6.09,3.12c-1.84.15-3.7.08-5.55.09C45.22,62.24,41.88,62.23,38.44,62.23Z"/></g></g></svg>