<svg xmlns="http://www.w3.org/2000/svg" viewBox="0 0 36.38 36.37"><defs><style>.cls-1{fill:#fff;}</style></defs><title> 資產 20</title><g id="圖層_2" data-name="圖層 2"><g id="_2-0_預備頁" data-name="2-0_預備頁"><path class="cls-1" d="M0,16.73H14.81a.74.74,0,0,1,.86.57,8.31,8.31,0,0,0,7.77,5.49h9.42c-.24,1.76-.41,3.48-.7,5.18a4.53,4.53,0,0,1-4.68,3.89H24.24v4.52H4.54v-.6c0-2,0-4.06,0-6.09a4,4,0,0,0-.91-2.62A16.67,16.67,0,0,1,0,17.31Z"/><path class="cls-1" d="M.33,13.58A16.65,16.65,0,0,1,13,.4,16.32,16.32,0,0,1,29.33,6h-.82c-2,0-3.92-.07-5.86.11a8.22,8.22,0,0,0-7.44,7.22c0,.08,0,.15-.05.25Z"/><path class="cls-1" d="M36.38,9.11V19.64l-.52,0H23.62a5.2,5.2,0,0,1-5.33-4.55,5.27,5.27,0,0,1,4.23-5.9,9.57,9.57,0,0,1,1.41-.11H36.38Z"/></g></g></svg>