<svg xmlns="http://www.w3.org/2000/svg" viewBox="0 0 54.25 54.31"><defs><style>.cls-1{fill:#fff;}</style></defs><title> 資產 15</title><g id="圖層_2" data-name="圖層 2"><g id="_2-0_預備頁" data-name="2-0_預備頁"><path class="cls-1" d="M7.24,50.94c0-2.17,0-4.22,0-6.28A.86.86,0,0,0,6.84,44c-3.08-1.44-4.41-4.17-5.45-7.17A21.93,21.93,0,0,1,.84,23.19,48.36,48.36,0,0,1,4,15.7,66.4,66.4,0,0,1,7.41,9.85a1.71,1.71,0,0,1,3,.14c1.27,2.1,2.64,4.14,3.84,6.28a24.77,24.77,0,0,1,1.62,3.91q.84,2.45,1.48,4.95A1.44,1.44,0,0,1,17,26.27C15.18,27.88,13.3,29.4,11.53,31c-1.36,1.26-2.89,2.46-2.76,4.67a4.34,4.34,0,0,0,3,4.32.88.88,0,0,1,.69,1,3.3,3.3,0,0,0,0,.77c.14,1-.13,1.7-1.18,1.95-.64.15-.83.55-.81,1.2,0,1.87,0,3.74,0,5.6a1.32,1.32,0,0,0,.09.34h4.85V36.28c-.3.21-.52.36-.73.52a1.62,1.62,0,0,1-2.62-.44,1.46,1.46,0,0,1,0-1.32,24.38,24.38,0,0,1,2.22-2.21c1.22-1.16,2.44-2.32,3.68-3.46.8-.73,1.65-1.41,2.47-2.12,1.56-1.33,3.12-2.65,4.65-4,1-.9,2-1.87,3-2.78,1.21-1.07,2.47-2.11,3.69-3.17a1.76,1.76,0,0,1,2.52.16c1.23,1.05,2.36,2.23,3.57,3.3,1.5,1.35,3.05,2.64,4.57,4,1,.87,2,1.75,3.2,2.79V24.78c0-.87,0-1.74,0-2.61a1.54,1.54,0,1,1,3.07,0,6.77,6.77,0,0,1,0,.78q0,3.33,0,6.66a1.45,1.45,0,0,0,.63,1.26,51.45,51.45,0,0,1,4.39,4.09,1.66,1.66,0,0,1,0,1.58,1.48,1.48,0,0,1-1.85.66c-.49-.21-1-.51-1.51-.82V51a6.75,6.75,0,0,1,2,0,3.18,3.18,0,0,1,1.61,1.11c.51.79-.28,1.94-1.31,2.12a4.92,4.92,0,0,1-.77,0q-24.91,0-49.82,0c-.8,0-1.62.09-2-.9A1.63,1.63,0,0,1,1.62,51c1.61,0,3.22,0,4.83,0C6.67,51,6.89,51,7.24,50.94Zm22,0c0-4.52,0-8.93,0-13.33A1.78,1.78,0,0,0,27.3,36c-1.77,0-3.54,0-5.31,0-1.51,0-2.16.7-2.16,2.2,0,3.93,0,7.85,0,11.78,0,.31,0,.63,0,1h3V49.72c0-3.15,0-6.31,0-9.46,0-.47,0-1,.62-1,.86,0,1.72,0,2.7,0V51Zm10.92-4.11c1.25,0,2.5,0,3.75,0S45.7,46.32,45.7,45c0-2.28,0-4.56,0-6.84,0-1.4-.63-2.12-2-2.15q-3.42-.06-6.84,0c-1.33,0-2,.75-2,2.09q0,3.42,0,6.84c0,1.45.44,1.88,1.91,1.9C37.92,46.86,39,46.84,40.17,46.84Z"/><path class="cls-1" d="M37.34,15.66c-.75-.5-1.4-.9-2-1.35a3.86,3.86,0,0,0-4.67,0c-1.74,1.44-3.4,3-5.11,4.43s-3.48,2.95-5.31,4.5a22.69,22.69,0,0,0-.84-2.94c-1-2.33-2.09-4.64-3.23-6.91-.62-1.26-1.42-2.44-2.11-3.66A.8.8,0,0,1,14,9.11c.9-1.77,1.38-3.7,2.89-5.22C20.49.29,24.64-.84,29.42.72A11.82,11.82,0,0,1,33.74,3.4C37.39,6.79,37.62,11,37.34,15.66Z"/><path class="cls-1" d="M47.09,13.94a6.92,6.92,0,0,1-7-6.87A7.28,7.28,0,0,1,47.15,0a7.15,7.15,0,0,1,7,7.09A6.79,6.79,0,0,1,47.09,13.94Z"/><path class="cls-1" d="M42.44,39.26c0,1.42,0,2.7,0,4a.81.81,0,0,1-.58.52c-1.09,0-2.19,0-3.28,0a.8.8,0,0,1-.57-.53c-.06-1.12,0-2.25,0-3.37a.8.8,0,0,1,.54-.57C39.76,39.23,41,39.26,42.44,39.26Z"/></g></g></svg>