<svg xmlns="http://www.w3.org/2000/svg" viewBox="0 0 37 40"><defs><style>.cls-1{fill:#fff;}</style></defs><title> 資產 30</title><g id="圖層_2" data-name="圖層 2"><g id="_2-0_預備頁" data-name="2-0_預備頁"><path class="cls-1" d="M18.52,28.67A14.34,14.34,0,1,1,32.75,14.35,14.31,14.31,0,0,1,18.52,28.67Zm7.4-16.25a1.46,1.46,0,0,0-1.27-1.37c-1-.16-1.94-.31-2.91-.43a.78.78,0,0,1-.71-.5c-.4-.88-.85-1.73-1.27-2.61a1.31,1.31,0,0,0-1.25-.87,1.32,1.32,0,0,0-1.21.87c-.43.89-.85,1.77-1.32,2.64a.91.91,0,0,1-.56.44c-.94.17-1.89.31-2.85.43a1.34,1.34,0,0,0-.79,2.43c.71.68,1.42,1.36,2.1,2.07a.76.76,0,0,1,.18.58c-.14,1-.3,1.95-.49,2.92a1.38,1.38,0,0,0,.49,1.51,1.35,1.35,0,0,0,1.57,0c.79-.43,1.59-.83,2.36-1.27a.92.92,0,0,1,1.06,0c.82.47,1.67.89,2.5,1.34A1.26,1.26,0,0,0,23,20.51a1.28,1.28,0,0,0,.48-1.36c-.17-1-.3-1.92-.5-2.87a.85.85,0,0,1,.31-.91c.69-.65,1.37-1.31,2-2A5.06,5.06,0,0,0,25.92,12.42Z"/><path class="cls-1" d="M4.67,23.92a17.09,17.09,0,0,0,11,7.1c-.2.46-.38.87-.57,1.27C14,34.53,13,36.76,12,39a1.39,1.39,0,0,1-1.33,1c-.73,0-1.07-.5-1.29-1.13q-.84-2.35-1.7-4.71c-.22-.6-.38-.67-1-.45L2,35.44a1.34,1.34,0,0,1-1.63-.27,1.37,1.37,0,0,1-.14-1.66c1.4-3,2.77-6,4.15-8.95Z"/><path class="cls-1" d="M21.42,31a17.07,17.07,0,0,0,11-7.08c.11.2.2.36.28.52,1.4,3,2.81,6.06,4.18,9.11a1.84,1.84,0,0,1,.1,1.2c-.21.74-.95,1-1.77.7L30.4,33.71c-.6-.22-.76-.15-1,.45-.58,1.59-1.16,3.18-1.72,4.77A1.37,1.37,0,0,1,26.48,40a1.32,1.32,0,0,1-1.34-.91C23.92,36.42,22.68,33.76,21.42,31Z"/></g></g></svg>