<svg xmlns="http://www.w3.org/2000/svg" viewBox="0 0 54.28 54.2"><defs><style>.cls-1{fill:#fff;}</style></defs><title> 資產 12</title><g id="圖層_2" data-name="圖層 2"><g id="_2-0_預備頁" data-name="2-0_預備頁"><path class="cls-1" d="M3,53.88c1.68-1.33,3.33-2.71,5-4a92.4,92.4,0,0,1,23.13-12.8,6,6,0,0,1,3.64-.29A58.08,58.08,0,0,1,53,44.1a2.17,2.17,0,0,1,1.27,2.21c-.12,1.83,0,3.67,0,5.5s-.61,2.39-2.37,2.39H3.15Zm45.45-5.39a1.81,1.81,0,0,0-1.75-1.81,1.78,1.78,0,0,0-1.86,1.78,1.8,1.8,0,0,0,1.78,1.77A1.83,1.83,0,0,0,48.49,48.49ZM43,44.13a1.82,1.82,0,0,0-1.79-1.76A1.79,1.79,0,1,0,41.22,46,1.83,1.83,0,0,0,43,44.13Z"/><path class="cls-1" d="M21,16.08c-1.18,2.16-2.45,4.28-3.52,6.5a13.68,13.68,0,0,0-1.17,3.86c-.62,4,1.44,7.08,5.5,8.29,1.09.32,2.23.51,3.66.84A95.24,95.24,0,0,0,.08,51.82c0-.57-.06-.9-.06-1.24,0-6.88,0-13.77,0-20.66a4.13,4.13,0,0,1,1.68-3.47c4.87-4,10.48-6.72,16.23-9.17,1-.41,2-.8,2.95-1.2A.32.32,0,0,1,21,16.08Z"/><path class="cls-1" d="M54.09,40.47c-1.81-.93-3.57-1.91-5.4-2.78A65.11,65.11,0,0,0,27.56,32,31.64,31.64,0,0,1,23,31.29c-2.85-.74-3.77-2.48-3-5.33a23.32,23.32,0,0,1,3.73-7.14c1-1.39,2.07-2.69,2.88-3.73,1.37,1.21,2.69,2.34,4,3.5a40.62,40.62,0,0,0,18.32,9.82c1.19.27,2.41.38,3.62.55a1.69,1.69,0,0,1,1.67,1.68c0,3.19,0,6.37,0,9.56C54.22,40.28,54.14,40.36,54.09,40.47Z"/><path class="cls-1" d="M42.52,5.84A5.74,5.74,0,0,1,48.4,0a5.87,5.87,0,0,1,.05,11.73A5.73,5.73,0,0,1,42.52,5.84Z"/></g></g></svg>