<svg xmlns="http://www.w3.org/2000/svg" viewBox="0 0 38.29 26.56"><defs><style>.cls-1{fill:#fff;}</style></defs><title> 資產 16</title><g id="圖層_2" data-name="圖層 2"><g id="_2-0_預備頁" data-name="2-0_預備頁"><path class="cls-1" d="M15,15.34c-2.45-3.64-2.4-6.8.1-9a6,6,0,0,1,8.25.08,6.17,6.17,0,0,1,0,8.85c.62.36,1.24.71,1.84,1.09a10.17,10.17,0,0,1,3.32,3.52,4.37,4.37,0,0,1-3.68,6.53c-3.75.15-7.51.15-11.26,0a4.37,4.37,0,0,1-3.4-7,10.63,10.63,0,0,1,4.25-3.76C14.56,15.58,14.74,15.48,15,15.34Z"/><path class="cls-1" d="M32.52,10.53l.79.41a10.45,10.45,0,0,1,4.4,4.16,4.36,4.36,0,0,1-3,6.47,16,16,0,0,1-2.86.1.67.67,0,0,1-.48-.43c-.45-2.69-2.1-4.56-4.1-6.2a.82.82,0,0,1-.31-1.15,8.3,8.3,0,0,0-3.17-10L23,3.34A5.92,5.92,0,0,1,27.62.06a5.65,5.65,0,0,1,5.85,2.73C35.15,5.52,34.64,8.13,32.52,10.53Z"/><path class="cls-1" d="M5.79,10.56c-2.14-2.42-2.66-5-1-7.75A5.65,5.65,0,0,1,10.33,0a5.94,5.94,0,0,1,5,3.28c-.59.44-1.14.81-1.65,1.24A8.21,8.21,0,0,0,11.39,14c.21.5.08.71-.3,1a10.73,10.73,0,0,0-4,5.49c-.32,1.19-.31,1.22-1.59,1.19a10,10,0,0,1-2.38-.24A4.35,4.35,0,0,1,.7,14.89,10.93,10.93,0,0,1,5.79,10.56Z"/></g></g></svg>