<svg xmlns="http://www.w3.org/2000/svg" viewBox="0 0 54.25 54.27"><defs><style>.cls-1{fill:#fff;}</style></defs><title> 資產 14</title><g id="圖層_2" data-name="圖層 2"><g id="_2-0_預備頁" data-name="2-0_預備頁"><path class="cls-1" d="M22.61,20.41c.59,1.44,1.1,2.79,1.72,4.1.1.22.65.32,1,.32,5.92,0,11.84,0,17.76,0,3.09,0,6.18,0,9.27,0,1.48,0,2.23.86,1.74,2a2.56,2.56,0,0,1-1.27,1,3.16,3.16,0,0,1-1.24.09H2.64c-.32,0-.65,0-1,0C.49,27.82,0,27.29,0,26.25c0-.87.62-1.38,1.73-1.4,1.87,0,3.74-.1,5.6,0,1.35.09,2.31-.14,2.77-1.56.3-.94.74-1.83,1.18-2.89-1.32,0-2.56,0-3.79,0-2.78-.15-4-1.3-4-3.94.07-4.25,0-8.5,0-12.75C3.56,1.19,4.75,0,7.27,0H26.68c2.48,0,3.73,1.25,3.73,3.73,0,4.31-.09,8.63,0,12.94a3.67,3.67,0,0,1-3.84,3.74C25.27,20.44,23.93,20.41,22.61,20.41Z"/><path class="cls-1" d="M27.2,31c7.43,0,14.87,0,22.3,0,.9,0,1.22.21,1.22,1.17,0,5.76,0,11.52,0,17.28,0,1.71-.26,2-1.91,2.24-.56.07-.58.35-.6.77,0,.72-.1,1.43-1,1.7a1.67,1.67,0,0,1-2.29-1.59c0-.77-.35-.88-1-.88q-5,0-10,0c-.69,0-1,.16-1,.9,0,1.18-.55,1.68-1.54,1.68s-1.46-.5-1.52-1.7c0-.61-.2-.83-.82-.88-1.43-.11-1.9-.67-1.9-2.13,0-3.41,0-6.82,0-10.23,0-.81-.15-1.12-1.05-1.11q-9.16,0-18.34,0c-.83,0-1.11.19-1.1,1.07,0,4.34,0,8.69,0,13,0,1.4-.47,2-1.54,2a1.32,1.32,0,0,1-1.48-1.21A7.31,7.31,0,0,1,3.56,52c0-6.6,0-13.2,0-19.8,0-1,.32-1.21,1.27-1.21C12.26,31,19.73,31,27.2,31Z"/><path class="cls-1" d="M42.26,15.39c-2.41,0-4.83,0-7.24,0-.84,0-1.22-.19-1.16-1.13.08-1.38,0-2.76,0-4.15A3.47,3.47,0,0,1,37.64,6.3H47.2c2.29,0,3.48,1.21,3.49,3.52,0,1.52,0,3,0,4.54,0,.78-.19,1.07-1,1.05C47.22,15.36,44.74,15.39,42.26,15.39Z"/><path class="cls-1" d="M42.39,21.57c-2.48,0-5,0-7.43,0-.83,0-1.14-.22-1.1-1.09.09-2-.32-1.83,1.89-1.83,4.63,0,9.26,0,13.89,0,.87,0,1.1.27,1.07,1.11-.08,2.13.27,1.81-1.86,1.82S44.54,21.57,42.39,21.57Z"/></g></g></svg>