<svg xmlns="http://www.w3.org/2000/svg" viewBox="0 0 62.13 62.47"><defs><style>.cls-1{fill:#fff;}</style></defs><title> 資產 6</title><g id="圖層_2" data-name="圖層 2"><g id="_1-0_登入頁" data-name="1-0_登入頁"><path class="cls-1" d="M42.38,43.28l3.7-4.82H31.93c-2.25,0-2.69-.44-2.69-2.71,0-3.12,0-6.24,0-9.36,0-2,.53-2.51,2.55-2.51H59.2c1.77,0,2.15.32,2.44,2.05a29.19,29.19,0,0,1-1.7,16.67,60.61,60.61,0,0,1-4.85,8.29,20.32,20.32,0,0,1-2.58,2.79Z"/><path class="cls-1" d="M15.65,24.39,5.24,14a25.08,25.08,0,0,1,4.88-5.86,33.13,33.13,0,0,1,8.37-5.33C26-.81,33.69-.7,41.37,1.82c2.71.89,5.15,2.65,7.68,4.08A8.7,8.7,0,0,1,51,7.46,1.67,1.67,0,0,1,51,10c-1.89,1.89-3.84,3.71-5.75,5.58-.51.5-.93,1.11-1.43,1.62-1.37,1.4-2.1,1.49-3.72.35a14.84,14.84,0,0,0-9.25-2.92,14.27,14.27,0,0,0-6.93,1.7,17.41,17.41,0,0,0-5,3.65C17.83,21.31,16.87,22.73,15.65,24.39Z"/><path class="cls-1" d="M5.26,48.69,16.05,38.26a12.75,12.75,0,0,0,4.8,6c5.23,4,11.08,4.45,17.12,1.87a1.41,1.41,0,0,1,1.87.32c1.91,1.93,3.92,3.75,5.84,5.67,1.27,1.27,2.43,2.64,3.65,4C35.82,67.07,15.08,63.38,5.26,48.69Z"/><path class="cls-1" d="M3.29,17.18c1.3,1.36,2.48,2.65,3.72,3.89.78.78,1.66,1.47,2.46,2.25,1.58,1.55,3.16,3.11,4.68,4.72a2.15,2.15,0,0,1,.44,1.31,23.66,23.66,0,0,1,0,3.67,3.39,3.39,0,0,1-.8,1.88c-1.36,1.5-2.82,2.91-4.28,4.32C8.29,40.4,7,41.5,5.82,42.7c-.85.86-1.58,1.83-2.41,2.79C-1.11,39.37-1.13,23.78,3.29,17.18Z"/></g></g></svg>