<svg xmlns="http://www.w3.org/2000/svg" viewBox="0 0 28.7 28.7"><defs><style>.cls-1{fill:#fff;}</style></defs><title> 資產 4</title><g id="圖層_2" data-name="圖層 2"><g id="_1-0_登入頁" data-name="1-0_登入頁"><path class="cls-1" d="M9.63,7.46c-1.08,1-2.17,2.1-3.27,3.13a.66.66,0,0,1-.44.14c-.53,0-1,0-1.57,0s-.79.21-.8.78c0,1.15,0,2.3,0,3.46,0,.83,0,1.67,0,2.51,0,.36.13.46.47.46,1,0,2,0,3,0a1.07,1.07,0,0,1,.66.28c1,.94,1.89,1.91,2.81,2.89a1.06,1.06,0,0,1,.25.63c0,2.16,0,4.31,0,6.46,0,.39-.14.49-.5.48-.87,0-1.73,0-2.6,0-.38,0-.49-.12-.49-.48,0-2.07,0-4.13,0-6.2,0-.55-.29-.49-.65-.51S6,21.54,6,22c0,2,0,4.07,0,6.1,0,.42-.1.59-.55.57-.82,0-1.65,0-2.47,0-.48,0-.56-.15-.56-.58,0-2,0-4,0-6,0-.63,0-.63-.61-.63-.46,0-.93,0-1.39,0-.27,0-.41-.06-.41-.37C0,17.77,0,14.41,0,11A4.06,4.06,0,0,1,3.36,7.28a31.35,31.35,0,0,1,3.36-.1c.85,0,1.7,0,2.55.06a1,1,0,0,1,.25,0Z"/><path class="cls-1" d="M19.1,7.27c.32,0,.55-.08.79-.08,1.6,0,3.2-.06,4.8,0a4.15,4.15,0,0,1,4,4.17c0,3.26,0,6.52,0,9.78,0,.3-.12.39-.4.38-.51,0-1,0-1.53,0s-.49.13-.49.5c0,2,0,4.09,0,6.14,0,.43-.12.57-.55.55-.84,0-1.68,0-2.51,0-.4,0-.52-.12-.52-.51,0-2.05,0-4.1,0-6.14,0-.52-.22-.54-.62-.54s-.62,0-.61.54c0,2,0,4.07,0,6.1,0,.44-.13.57-.56.55-.87,0-1.74,0-2.6,0-.31,0-.43-.09-.43-.41,0-2.2,0-4.4,0-6.59a.85.85,0,0,1,.23-.55c.93-1,1.88-2,2.84-2.93a1,1,0,0,1,.62-.26c1,0,2,0,3,0,.36,0,.5-.1.5-.48,0-2,0-3.92,0-5.87,0-.66-.21-.85-.87-.86a3.13,3.13,0,0,0-.53,0,2.24,2.24,0,0,1-2.22-.9C20.84,9,20,8.29,19.29,7.52A2.11,2.11,0,0,1,19.1,7.27Z"/><path class="cls-1" d="M11.89,8.56c0,.22,0,.38,0,.53,0,.81,0,1.62,0,2.42,0,.33.13.46.45.45,1.33,0,2.67,0,4,0,.31,0,.42-.12.41-.43,0-.8,0-1.61,0-2.42,0-.16,0-.32,0-.58a3.72,3.72,0,0,1,.36.3l3.91,4a1.21,1.21,0,0,1,.06,1.76c-1.35,1.4-2.72,2.78-4.08,4.16a1.79,1.79,0,0,1-.24.18c0-.22,0-.38,0-.53,0-.83,0-1.65,0-2.47,0-.33-.12-.44-.45-.44-1.31,0-2.63,0-3.94,0-.37,0-.47.14-.47.48,0,.82,0,1.64,0,2.47,0,.14,0,.28,0,.5-.16-.13-.25-.2-.33-.28q-2-2-4-4a1.16,1.16,0,0,1,0-1.72c1.34-1.4,2.7-2.79,4.06-4.18A1.84,1.84,0,0,1,11.89,8.56Z"/><path class="cls-1" d="M9.52,3.05A3,3,0,0,1,3.6,3a3,3,0,0,1,3-3A3,3,0,0,1,9.52,3.05Z"/><path class="cls-1" d="M19.17,3a3,3,0,0,1,3-3,3,3,0,0,1,3,3,3,3,0,0,1-3,2.92A2.93,2.93,0,0,1,19.17,3Z"/></g></g></svg>