<svg xmlns="http://www.w3.org/2000/svg" viewBox="0 0 42.24 54.41"><defs><style>.cls-1{fill:#fff;}</style></defs><title> 資產 13</title><g id="圖層_2" data-name="圖層 2"><g id="_2-0_預備頁" data-name="2-0_預備頁"><path class="cls-1" d="M33.85.12V54.33H8.38c0-.36-.05-.7-.05-1q0-26,0-52c0-.83.14-1.16,1.1-1.16,7.82,0,15.64,0,23.46,0ZM22.6,8.77h0c0-.84,0-1.68,0-2.51C22.53,5.14,22,4.57,21,4.56A1.5,1.5,0,0,0,19.4,6.2c-.06,1.66-.06,3.34,0,5A1.48,1.48,0,0,0,21,12.81c1,0,1.55-.54,1.63-1.63C22.65,10.38,22.6,9.57,22.6,8.77Zm0,24.41h0V31a1.15,1.15,0,0,0,0-.19C22.52,29.68,21.89,29,21,29a1.62,1.62,0,0,0-1.57,1.71c0,1.67,0,3.34,0,5A1.43,1.43,0,0,0,21,37.25a1.42,1.42,0,0,0,1.55-1.47C22.64,34.91,22.59,34.05,22.59,33.18Zm0,12.31h0c0-.84,0-1.67,0-2.5A1.51,1.51,0,0,0,21,41.36,1.5,1.5,0,0,0,19.39,43c0,1.6,0,3.21,0,4.81A1.58,1.58,0,0,0,21,49.58a1.63,1.63,0,0,0,1.6-1.78C22.65,47,22.62,46.26,22.62,45.49ZM19.37,20.88c0,.8,0,1.61,0,2.41A2,2,0,0,0,21,25.13a1.94,1.94,0,0,0,1.59-1.79c0-1.61,0-3.22,0-4.82A1.5,1.5,0,0,0,21,16.9a1.52,1.52,0,0,0-1.59,1.66C19.35,19.34,19.38,20.11,19.37,20.88Z"/><path class="cls-1" d="M4.88,54.38c-1.08,0-2,0-2.93,0A1.94,1.94,0,0,1,0,52.43a7.46,7.46,0,0,1,0-1.06V3.21A9.32,9.32,0,0,1,0,2.15a2,2,0,0,1,2.06-2c2.79-.3,2.79-.3,2.79,2.49V54.38Z"/><path class="cls-1" d="M37.36,54.39v-53c0-1.26,0-1.26,1.23-1.26.45,0,.9,0,1.35,0a2.1,2.1,0,0,1,2.29,2.29c0,.29,0,.58,0,.87v48a8.94,8.94,0,0,1,0,1.16,2,2,0,0,1-2.09,2C39.26,54.43,38.39,54.39,37.36,54.39Z"/></g></g></svg>