<svg xmlns="http://www.w3.org/2000/svg" viewBox="0 0 49.14 49.57"><defs><style>.cls-1{fill:#fff;}</style></defs><title> 資產 19</title><g id="圖層_2" data-name="圖層 2"><g id="_2-0_預備頁" data-name="2-0_預備頁"><path class="cls-1" d="M30.72,49.57H18.44c0-.24,0-.49,0-.73,0-1.92,0-3.84,0-5.75a.93.93,0,0,0-.7-1A15.2,15.2,0,0,1,13,39.37a1,1,0,0,0-1.25-.07c-1.65,1-3.33,1.9-5,2.88-.49.29-.73.23-1-.27C3.89,38.61,2,35.33,0,32c.21-.16.41-.35.63-.49,1.63-1,3.25-1.93,4.9-2.85a1.11,1.11,0,0,0,.62-1.23c-.08-1.75,0-3.5,0-5.25A1,1,0,0,0,5.63,21C4.05,20.11,2.5,19.19.94,18.27c-.31-.18-.6-.39-.94-.62L4.76,9.42c.34-.59.72-1.15,1-1.75s.59-.55,1.08-.26c1.62,1,3.28,1.88,4.9,2.84a1.13,1.13,0,0,0,1.33-.06c1.54-.94,3.11-1.83,4.7-2.69a1,1,0,0,0,.63-1c0-1.89,0-3.78,0-5.67V0H30.68c0,.24,0,.46,0,.69,0,1.94,0,3.88,0,5.82a1,1,0,0,0,.66,1c1.56.85,3.12,1.72,4.63,2.65a1.16,1.16,0,0,0,1.4.08c1.64-1,3.32-1.9,5-2.88.47-.27.69-.22,1,.26,1.9,3.32,3.83,6.62,5.82,10.05-.91.55-1.8,1.1-2.7,1.63s-2,1.16-3,1.71a.88.88,0,0,0-.55,1,15.35,15.35,0,0,1,0,5.49.85.85,0,0,0,.53,1c1.55.88,3.09,1.79,4.63,2.69l1,.66-2.46,4.25c-1.11,1.9-2.23,3.79-3.29,5.72-.33.6-.62.58-1.14.27-1.62-1-3.28-1.88-4.9-2.84a1,1,0,0,0-1.25.09,15.52,15.52,0,0,1-4.69,2.68.94.94,0,0,0-.69,1c0,1.89,0,3.78,0,5.67ZM24.49,31a6.23,6.23,0,1,0,.1-12.46A6.23,6.23,0,0,0,24.49,31Z"/></g></g></svg>