<svg xmlns="http://www.w3.org/2000/svg" viewBox="0 0 31.51 31.53"><defs><style>.cls-1{fill:#fff;}</style></defs><title> 資產 17</title><g id="圖層_2" data-name="圖層 2"><g id="_2-0_預備頁" data-name="2-0_預備頁"><path class="cls-1" d="M27,4.65,30.24,1.4c0,.2,0,.34,0,.48V8.7c0,1.27-.53,1.79-1.81,1.79H21.23l3-2.92A11.7,11.7,0,0,0,11.41,4.79,11.89,11.89,0,0,0,4.34,18.86a12,12,0,0,0,12.34,8.76,11.94,11.94,0,0,0,11-11.79H31.5a15.57,15.57,0,0,1-9.67,14.51A15.78,15.78,0,1,1,27,4.65Z"/><path class="cls-1" d="M17.07,9.19v2.19c0,1.46,0,2.93,0,4.39a1.07,1.07,0,0,0,.33.83c1,1,2,2,3,2.93l-2.77,2.78s0,0-.07,0c-1.38-1.39-2.77-2.77-4.14-4.17a.87.87,0,0,1-.21-.57c0-2.63,0-5.26,0-7.89,0-.22,0-.45.31-.45Z"/></g></g></svg>