<svg xmlns="http://www.w3.org/2000/svg" viewBox="0 0 35.55 35.41"><defs><style>.cls-1{fill:#fff;}</style></defs><title> 資產 22</title><g id="圖層_2" data-name="圖層 2"><g id="_2-0_預備頁" data-name="2-0_預備頁"><path class="cls-1" d="M8.84,11.87v3.45c0,1.61,0,3.22,0,4.83,0,.4-.12.53-.5.62a19.91,19.91,0,0,0-4.84,1.76,1,1,0,0,0-.61,1c0,3.72,0,7.45,0,11.17,0,.57-.15.75-.72.71s-1.4,0-2.16,0c0-.23,0-.43,0-.62Q0,19.45,0,4.14a1,1,0,0,1,.49-.95A21.51,21.51,0,0,1,7.93.11a4.07,4.07,0,0,1,.49,0c.32,0,.45.07.45.39,0,2.67,0,5.33,0,8,0,.36-.22.46-.5.55L3.46,10.58a.7.7,0,0,0-.56.82c0,.7,0,1.4,0,2.11,0,.36.09.53.49.36,1.16-.48,2.33-1,3.5-1.4C7.5,12.24,8.12,12.09,8.84,11.87Z"/><path class="cls-1" d="M35.54,12.15V15.5c0,1.66,0,3.33,0,5,0,.36-.08.6-.45.72L30,22.88a1.42,1.42,0,0,1-.33,0v-.57c0-2.59,0-5.18,0-7.77a.64.64,0,0,1,.55-.76c1.63-.47,3.24-1,4.86-1.53Z"/><path class="cls-1" d="M26.6,14.66c0,.23,0,.44,0,.66q0,3.72,0,7.44c0,.73,0,.8-.76.74-1.52-.13-3-.31-4.57-.48-.41-.05-.57-.26-.57-.7,0-2.56,0-5.12,0-7.67,0-.49.13-.59.61-.48a15.77,15.77,0,0,0,4.79.47A3.56,3.56,0,0,1,26.6,14.66Z"/><path class="cls-1" d="M17.68,22,11.93,20.6V11.79l3.69.89c.59.14,1.19.3,1.76.49a.61.61,0,0,1,.36.43c0,2.74,0,5.48,0,8.22A1,1,0,0,1,17.68,22Z"/><path class="cls-1" d="M11.92,8.75V0c.61.1,1.19.17,1.76.29,1.22.28,2.44.58,3.65.9a.69.69,0,0,1,.41.47c0,2.74,0,5.48,0,8.22,0,0,0,.06-.06.14Z"/><path class="cls-1" d="M26.66,7.16c0,1.23,0,2.45,0,3.67,0,.57-.22.8-.73.77-1.1-.06-2.2-.13-3.3-.24-.5,0-1-.23-1.47-.3-.32-.05-.38-.2-.38-.48v-8c0-.33.11-.42.43-.35a16.61,16.61,0,0,0,5.06.57c.4,0,.37.27.37.53C26.66,4.61,26.66,5.89,26.66,7.16Z"/><path class="cls-1" d="M29.72,10.87c0-.24,0-.38,0-.52,0-2.54,0-5.07,0-7.61a.6.6,0,0,1,.51-.68c1.5-.51,3-1.09,4.46-1.65.27-.1.53-.24.86-.39,0,.19,0,.31,0,.43,0,2.65,0,5.29,0,7.94,0,.21-.17.54-.33.59C33.4,9.63,31.58,10.24,29.72,10.87Z"/></g></g></svg>