<svg xmlns="http://www.w3.org/2000/svg" viewBox="0 0 38 38"><defs><style>.cls-1{fill:#fff;}</style></defs><title> 資產 31</title><g id="圖層_2" data-name="圖層 2"><g id="_2-0_預備頁" data-name="2-0_預備頁"><path class="cls-1" d="M37.83,15.84,34,15.36q-6.15-.78-12.3-1.54A3.32,3.32,0,0,0,18,17c0,1.74,0,3.49,0,5.23a3.12,3.12,0,0,0,1.8,2.87c3.47,1.74,7,3.46,10.42,5.19l5.15,2.58A6.69,6.69,0,0,1,33,36.62a6.12,6.12,0,0,1-6.16.93c-3.36-1.32-6.7-2.7-10-4.07q-7.25-3-14.48-6A3.4,3.4,0,0,1,0,24.18c0-2.1,0-4.19.07-6.28a18.52,18.52,0,0,1,3.2-9.25A20.06,20.06,0,0,1,8,3.53,16.92,16.92,0,0,1,16.72.1,19.7,19.7,0,0,1,27.46,2a18.68,18.68,0,0,1,9,9.4A18.28,18.28,0,0,1,37.83,15.84ZM9,24.64a4.46,4.46,0,1,0-4.44-4.47A4.46,4.46,0,0,0,9,24.64Z"/><path class="cls-1" d="M24.69,16.44,38,18.1V29.58c0,1.27-.73,1.76-1.86,1.2Q30.54,28,25,25.24a.67.67,0,0,1-.34-.47q0-4,0-8.09A1,1,0,0,1,24.69,16.44Z"/><path class="cls-1" d="M22.39,16.15V24a17.68,17.68,0,0,1-1.85-1,1.19,1.19,0,0,1-.34-.85c0-1.62,0-3.25,0-4.88A1.12,1.12,0,0,1,21.5,16Z"/><path class="cls-1" d="M9,18A2.23,2.23,0,1,1,6.74,20.2,2.27,2.27,0,0,1,9,18Z"/></g></g></svg>