<svg xmlns="http://www.w3.org/2000/svg" viewBox="0 0 55.3 55.26"><defs><style>.cls-1{fill:#fff;}</style></defs><title> 資產 7</title><g id="圖層_2" data-name="圖層 2"><g id="_1-0_登入頁" data-name="1-0_登入頁"><path class="cls-1" d="M55.3,27.69A27.65,27.65,0,1,1,27.62,0,27.64,27.64,0,0,1,55.3,27.69ZM38.45,20.05a6,6,0,0,0-.5-.63c-.69-.7-1.42-1.36-2.07-2.08-.5-.56-.84-.47-1.33,0-2.08,2.13-4.2,4.2-6.28,6.33-.51.53-.82.48-1.31,0-2-2.07-4.06-4.1-6.1-6.14-.82-.82-.82-.82-1.68,0-.55.55-1.11,1.09-1.66,1.65-.82.82-.82.82,0,1.68,2,2,4,4.06,6.07,6,.6.58.54.89,0,1.43-2.09,2-4.11,4.13-6.2,6.16-.58.56-.56.94,0,1.46a22.54,22.54,0,0,1,2,2c.49.54.84.49,1.33,0,2.06-2.1,4.18-4.15,6.22-6.26.58-.6.89-.54,1.44,0,2,2.07,4.09,4.07,6.09,6.14.62.65,1,.63,1.58,0s1.1-1.1,1.65-1.65c.89-.88.88-.88,0-1.74-2-2-4-4.06-6.07-6-.59-.58-.53-.89,0-1.44,2.09-2,4.13-4.11,6.18-6.17C38.05,20.53,38.22,20.31,38.45,20.05Z"/></g></g></svg>