<svg xmlns="http://www.w3.org/2000/svg" viewBox="0 0 39 31"><defs><style>.cls-1{fill:#fff;}</style></defs><title> 資產 29</title><g id="圖層_2" data-name="圖層 2"><g id="_2-0_預備頁" data-name="2-0_預備頁"><path class="cls-1" d="M8.91,4.26a13.63,13.63,0,0,1,.66-1.71c.09-.17.48-.26.74-.26.74,0,1,.39,1.15,1.93l.82.16a9.45,9.45,0,0,1,4.17,2.14,1.17,1.17,0,0,0,.72.28c1.56,0,3.13,0,4.69,0a1,1,0,0,0,.56-.17,9.36,9.36,0,0,1,5.16-2.41c0-.25,0-.5,0-.75a1.16,1.16,0,0,1,1.13-1.21,1.14,1.14,0,0,1,1.15,1.19c0,.24,0,.47,0,.74.49.11,1,.19,1.42.32a9.07,9.07,0,0,1,6.52,7.66c.42,4.31.88,8.62,1.19,12.94a5.67,5.67,0,0,1-7.5,5.59,7.1,7.1,0,0,1-3.5-3C26.77,26,25.5,24.32,24.26,22.6a.65.65,0,0,0-.63-.32A3.29,3.29,0,0,1,20.23,20c-.18-.49-.53-.31-.84-.34s-.49,0-.63.34a3.37,3.37,0,0,1-3.4,2.32.89.89,0,0,0-.62.31c-1.47,2-2.91,4-4.39,6a5.71,5.71,0,0,1-6.79,2A5.53,5.53,0,0,1,0,25.11c.18-2.54.45-5.06.68-7.59.17-1.82.28-3.64.51-5.45A9,9,0,0,1,8.58,4.32Zm.22,7.84H8.06a1.14,1.14,0,1,0,0,2.27c.34,0,.68,0,1.08,0,0,.4,0,.73,0,1.07a1.14,1.14,0,1,0,2.27,0c0-.33,0-.66,0-1h1.06a1.14,1.14,0,1,0,0-2.27H11.4c0-.41,0-.73,0-1a1.15,1.15,0,0,0-1.12-1.22A1.16,1.16,0,0,0,9.13,11C9.12,11.36,9.13,11.7,9.13,12.1Zm10.41,0H18.36a1.14,1.14,0,0,0-1.14,1.09,1.13,1.13,0,0,0,1.11,1.17c.77,0,1.54,0,2.31,0a1.14,1.14,0,1,0,0-2.27Zm9.2,2.64A1.14,1.14,0,0,0,28.67,17a1.14,1.14,0,1,0,.07-2.27ZM24.59,18.9a1.11,1.11,0,0,0-1.14-1.12,1.14,1.14,0,0,0-1.13,1.14A1.17,1.17,0,0,0,23.45,20,1.13,1.13,0,0,0,24.59,18.9Zm4.12-9.43a1.13,1.13,0,0,0-1.13,1.14,1.18,1.18,0,0,0,1.13,1.11,1.15,1.15,0,0,0,1.14-1.14A1.09,1.09,0,0,0,28.71,9.47Zm2.71,2.64a1.13,1.13,0,0,0-1.16,1.11,1.14,1.14,0,0,0,2.27,0A1.15,1.15,0,0,0,31.42,12.11ZM16.66,18.89a1.12,1.12,0,0,0-1.16-1.11,1.14,1.14,0,0,0-1.11,1.11A1.16,1.16,0,0,0,15.53,20,1.13,1.13,0,0,0,16.66,18.89Zm10.52-5.65a1.12,1.12,0,0,0-1.13-1.14,1.17,1.17,0,0,0-1.14,1.15A1.19,1.19,0,0,0,26,14.37,1.15,1.15,0,0,0,27.18,13.24Z"/><path class="cls-1" d="M20.65,4.51H18.39c0-.18,0-.36,0-.54,0-.92,0-1.84,0-2.76a1.14,1.14,0,1,1,2.28,0C20.67,2.27,20.65,3.36,20.65,4.51Z"/></g></g></svg>