<svg xmlns="http://www.w3.org/2000/svg" viewBox="0 0 399.78 79.66"><defs><style>.cls-1{fill:#fff;}</style></defs><title> 資產 2</title><g id="圖層_2" data-name="圖層 2"><g id="_1-0_登入頁" data-name="1-0_登入頁"><path class="cls-1" d="M39.14,5.5H52.71a1.7,1.7,0,0,1,1.93,1.93V62.52a1.71,1.71,0,0,1-1.93,1.93H45.2a1.71,1.71,0,0,1-1.93-1.93V19.07H42.9L33.55,49.78a2.24,2.24,0,0,1-2.29,1.83h-7.7a2.25,2.25,0,0,1-2.29-1.83L11.73,19h-.36V62.52A2.34,2.34,0,0,1,11,64a2.08,2.08,0,0,1-1.56.42H1.93A1.71,1.71,0,0,1,0,62.52V7.43A1.7,1.7,0,0,1,1.93,5.5H15.58a1.74,1.74,0,0,1,1.75,1.28L27,39.14h.55L37.4,6.78A1.57,1.57,0,0,1,39.14,5.5Z"/><path class="cls-1" d="M66.1,9.81v-8A1.62,1.62,0,0,1,67.93,0h8q1.83,0,1.83,1.74V9.81a1.62,1.62,0,0,1-1.83,1.83h-8A1.62,1.62,0,0,1,66.1,9.81Zm0,52.71V19.62c0-1.29.61-1.93,1.83-1.93h7.88a1.7,1.7,0,0,1,1.93,1.93v42.9a2.13,2.13,0,0,1-.41,1.56,2.18,2.18,0,0,1-1.42.37H68A1.7,1.7,0,0,1,66.1,62.52Z"/><path class="cls-1" d="M98,64.45H90.21a1.71,1.71,0,0,1-1.93-1.93V19.62a1.7,1.7,0,0,1,1.93-1.93H98a1.7,1.7,0,0,1,1.92,1.93v3h.37q2-5,9-4.95h2.94q14.39,0,14.39,15V62.52c0,1.28-.67,1.93-2,1.93h-7.7A1.7,1.7,0,0,1,115,62.52V33.19c0-2-.41-3.35-1.24-4.18s-2.22-1.23-4.17-1.23h-3.3q-6.33,0-6.33,7V62.52A1.7,1.7,0,0,1,98,64.45Z"/><path class="cls-1" d="M167,64.45h-7.8a1.7,1.7,0,0,1-1.92-1.93V7.43a1.7,1.7,0,0,1,1.92-1.93h21.82q7.15,0,11.19,3.94t4,11.09v7.16q0,10.35-8.16,13.75v.36l9.81,20.45c.55,1.46,0,2.2-1.56,2.2h-7.42a5.78,5.78,0,0,1-2.39-.37,2.71,2.71,0,0,1-1.19-1.56l-9.17-19.8h-6.14c-.73,0-1.1.34-1.1,1V62.52A1.7,1.7,0,0,1,167,64.45ZM170,33.37h9a6.27,6.27,0,0,0,4.31-1.24,5.1,5.1,0,0,0,1.38-4V21a5.39,5.39,0,0,0-1.38-4.12,6.12,6.12,0,0,0-4.31-1.29h-9a.9.9,0,0,0-1,1V32.36A.9.9,0,0,0,170,33.37Z"/><path class="cls-1" d="M223,64.45h-2.2q-7.25,0-11.19-3.85t-3.94-11.1V32.64q0-7.25,3.94-11.1t11.19-3.85h21.17c1.35,0,2,.64,2,1.93v42.9c0,1.28-.67,1.93-2,1.93h-7.7a1.7,1.7,0,0,1-1.92-1.93v-3h-.37a7,7,0,0,1-3.57,3.71A12.39,12.39,0,0,1,223,64.45ZM232.3,47.4V28.79c0-.68-.37-1-1.1-1h-8.62c-2,0-3.33.41-4.12,1.23s-1.2,2.22-1.2,4.18V49q0,2.94,1.2,4.17c.79.83,2.16,1.24,4.12,1.24H226Q232.3,54.36,232.3,47.4Z"/><path class="cls-1" d="M283.82,56.29v6.32a2,2,0,0,1-.41,1.42,2.13,2.13,0,0,1-1.52.42H268.23q-7.25,0-11.18-3.85t-3.94-11.1V32.64q0-7.25,3.94-11.1t11.18-3.85h13.66a1.7,1.7,0,0,1,1.93,1.93v6.32a2,2,0,0,1-.41,1.42,2.13,2.13,0,0,1-1.52.42H270.07A5.62,5.62,0,0,0,266,29c-.83.83-1.24,2.22-1.24,4.18V49c0,2,.41,3.35,1.24,4.17a5.58,5.58,0,0,0,4.08,1.24h11.82A1.7,1.7,0,0,1,283.82,56.29Z"/><path class="cls-1" d="M292.16,9.81v-8A1.62,1.62,0,0,1,294,0h8q1.83,0,1.83,1.74V9.81A1.62,1.62,0,0,1,302,11.64h-8A1.62,1.62,0,0,1,292.16,9.81Zm0,52.71V19.62c0-1.29.61-1.93,1.83-1.93h7.89a1.7,1.7,0,0,1,1.92,1.93v42.9a2.08,2.08,0,0,1-.41,1.56,2.16,2.16,0,0,1-1.42.37h-7.88A1.71,1.71,0,0,1,292.16,62.52Z"/><path class="cls-1" d="M324.06,64.45h-7.79a1.71,1.71,0,0,1-1.93-1.93V19.62a1.71,1.71,0,0,1,1.93-1.93h7.79A1.7,1.7,0,0,1,326,19.62v3h.36q2-5,9-4.95h2.93q14.4,0,14.39,15V62.52c0,1.28-.67,1.93-2,1.93H343A1.71,1.71,0,0,1,341,62.52V33.19c0-2-.41-3.35-1.24-4.18s-2.21-1.23-4.17-1.23h-3.3q-6.31,0-6.32,7V62.52A1.71,1.71,0,0,1,324.06,64.45Z"/><path class="cls-1" d="M378.79,62.34h-3q-7.06,0-10.68-3.85T361.47,47.4V32.64q0-7.25,3.94-11.1t11.18-3.85h21.18c1.34,0,2,.64,2,1.93V64.81q0,7.16-4,11t-11.14,3.85h-17.6a2.13,2.13,0,0,1-1.52-.41,2,2,0,0,1-.41-1.42V71.51a1.7,1.7,0,0,1,1.93-1.93h15.67c2,0,3.35-.41,4.17-1.24a5.58,5.58,0,0,0,1.24-4.08v-7h-.36a7.15,7.15,0,0,1-3.58,3.75A11.87,11.87,0,0,1,378.79,62.34Zm9.35-17.05V28.79c0-.68-.36-1-1.1-1h-8.62c-1.95,0-3.33.41-4.12,1.23s-1.19,2.22-1.19,4.18V46.85c0,1.95.39,3.33,1.19,4.12s2.17,1.19,4.12,1.19h3.4Q388.14,52.16,388.14,45.29Z"/></g></g></svg>